<svg width="21" height="21" viewBox="0 0 21 21" fill="none" xmlns="http://www.w3.org/2000/svg">
<path d="M14.7066 13.578C14.8247 12.6689 14.8247 11.7598 14.8247 10.8507C14.8247 9.94165 14.7793 9.03256 14.7066 8.12347H19.8884C20.4096 9.90429 20.4096 11.7972 19.8884 13.578H14.7066ZM12.6702 6.30528C12.0975 2.75074 10.9611 0.850739 10.2793 0.850739C9.59747 0.850739 8.4611 2.75074 7.88837 6.30528H12.6702ZM7.88837 15.3962C8.45201 18.9507 9.59747 20.8507 10.2793 20.8507C10.9611 20.8507 12.0975 18.9507 12.6702 15.3962H7.88837ZM12.8884 8.12347H7.67019C7.59746 8.96892 7.55201 9.86892 7.55201 10.8507C7.55201 11.8326 7.59746 12.7326 7.67019 13.578H12.8884C12.9611 12.7326 13.0066 11.8326 13.0066 10.8507C13.0066 9.86892 13.0066 8.96892 12.8884 8.12347ZM5.73383 10.8507C5.73383 9.94165 5.73383 9.03256 5.85201 8.12347H0.670192C0.148974 9.90429 0.148974 11.7972 0.670192 13.578H5.85201C5.77928 12.6689 5.73383 11.7598 5.73383 10.8507ZM6.0611 15.3962H1.37928C2.00621 16.6172 2.87778 17.6961 3.93974 18.5657C5.00171 19.4353 6.23131 20.077 7.55201 20.4507C6.79037 18.8555 6.28713 17.1494 6.0611 15.3962ZM14.4975 15.3962C14.2714 17.1494 13.7682 18.8555 13.0066 20.4507C14.3273 20.077 15.5569 19.4353 16.6188 18.5657C17.6808 17.6961 18.5524 16.6172 19.1793 15.3962H14.4975ZM14.4975 6.30528H19.1793C18.5524 5.08425 17.6808 4.00536 16.6188 3.13577C15.5569 2.26618 14.3273 1.62452 13.0066 1.25074C13.7682 2.84595 14.2714 4.55208 14.4975 6.30528ZM6.0611 6.30528C6.28713 4.55208 6.79037 2.84595 7.55201 1.25074C6.23131 1.62452 5.00171 2.26618 3.93974 3.13577C2.87778 4.00536 2.00621 5.08425 1.37928 6.30528H6.0611Z" fill="#1B1D4E"/>
</svg>
