<svg width="20" height="20" viewBox="0 0 20 20" fill="none" xmlns="http://www.w3.org/2000/svg">
<path d="M17.5 18.9584H2.5C2.15833 18.9584 1.875 18.675 1.875 18.3334C1.875 17.9917 2.15833 17.7084 2.5 17.7084H17.5C17.8417 17.7084 18.125 17.9917 18.125 18.3334C18.125 18.675 17.8417 18.9584 17.5 18.9584Z" fill="#25282C"/>
<path d="M4.66665 16.4584H3.33333C2.53333 16.4584 1.875 15.8001 1.875 15.0001V7.81673C1.875 7.01673 2.53333 6.3584 3.33333 6.3584H4.66665C5.46665 6.3584 6.12498 7.01673 6.12498 7.81673V15.0001C6.12498 15.8001 5.46665 16.4584 4.66665 16.4584ZM3.33333 7.60006C3.21667 7.60006 3.125 7.69172 3.125 7.80839V15.0001C3.125 15.1167 3.21667 15.2084 3.33333 15.2084H4.66665C4.78331 15.2084 4.87498 15.1167 4.87498 15.0001V7.81673C4.87498 7.70007 4.78331 7.6084 4.66665 7.6084H3.33333V7.60006Z" fill="#25282C"/>
<path d="M10.6666 16.4583H9.33333C8.53333 16.4583 7.875 15.7999 7.875 14.9999V5.15828C7.875 4.35828 8.53333 3.69995 9.33333 3.69995H10.6666C11.4666 3.69995 12.125 4.35828 12.125 5.15828V14.9999C12.125 15.7999 11.4666 16.4583 10.6666 16.4583ZM9.33333 4.94995C9.21667 4.94995 9.125 5.04162 9.125 5.15828V14.9999C9.125 15.1166 9.21667 15.2083 9.33333 15.2083H10.6666C10.7833 15.2083 10.875 15.1166 10.875 14.9999V5.15828C10.875 5.04162 10.7833 4.94995 10.6666 4.94995H9.33333Z" fill="#25282C"/>
<path d="M16.6666 16.4583H15.3333C14.5333 16.4583 13.875 15.8 13.875 15V2.49996C13.875 1.69996 14.5333 1.04163 15.3333 1.04163H16.6666C17.4666 1.04163 18.125 1.69996 18.125 2.49996V15C18.125 15.8 17.4666 16.4583 16.6666 16.4583ZM15.3333 2.29163C15.2167 2.29163 15.125 2.38329 15.125 2.49996V15C15.125 15.1166 15.2167 15.2083 15.3333 15.2083H16.6666C16.7833 15.2083 16.875 15.1166 16.875 15V2.49996C16.875 2.38329 16.7833 2.29163 16.6666 2.29163H15.3333Z" fill="#25282C"/>
</svg>
